HIERARCHY
ROOT root
{
	OFFSET 0.000000 0.000000 0.000000
	CHANNELS 6 Xposition Yposition Zposition Zrotation Yrotation Xrotation
	JOINT lhip
	{
		OFFSET 0.058581 -0.082280 -0.017664
		CHANNELS 3 Zrotation Yrotation Xrotation
		JOINT lknee
		{
			OFFSET 0.043451 -0.386469 0.008037
			CHANNELS 3 Zrotation Yrotation Xrotation
			JOINT lankle
			{
				OFFSET -0.014790 -0.426874 -0.037428
				CHANNELS 3 Zrotation Yrotation Xrotation
				JOINT ltoe
				{
					OFFSET 0.041054 -0.060286 0.122042
					CHANNELS 3 Zrotation Yrotation Xrotation
					End Site
					{
						OFFSET 0.000000 0.000000 0.000000
					}
				}
			}
		}
	}
	JOINT rhip
	{
		OFFSET -0.060310 -0.090513 -0.013543
		CHANNELS 3 Zrotation Yrotation Xrotation
		JOINT rknee
		{
			OFFSET -0.043257 -0.383688 -0.004843
			CHANNELS 3 Zrotation Yrotation Xrotation
			JOINT rankle
			{
				OFFSET 0.019056 -0.420046 -0.034562
				CHANNELS 3 Zrotation Yrotation Xrotation
				JOINT rtoe
				{
					OFFSET -0.034840 -0.062106 0.130323
					CHANNELS 3 Zrotation Yrotation Xrotation
					End Site
					{
						OFFSET 0.000000 0.000000 0.000000
					}
				}
			}
		}
	}
	JOINT lowerback
	{
		OFFSET 0.004439 0.124404 -0.038385
		CHANNELS 3 Zrotation Yrotation Xrotation
		JOINT upperback
		{
			OFFSET 0.004488 0.137956 0.026820
			CHANNELS 3 Zrotation Yrotation Xrotation
			JOINT chest
			{
				OFFSET -0.002265 0.056032 0.002855
				CHANNELS 3 Zrotation Yrotation Xrotation
				JOINT lowerneck
				{
					OFFSET -0.013390 0.211636 -0.033468
					CHANNELS 3 Zrotation Yrotation Xrotation
					JOINT upperneck
					{
						OFFSET 0.010113 0.088937 0.050410
						CHANNELS 3 Zrotation Yrotation Xrotation
						End Site
						{
							OFFSET 0.000000 0.000000 0.000000
						}
					}
				}
				JOINT lclavicle
				{
					OFFSET 0.071702 0.114000 -0.018898
					CHANNELS 3 Zrotation Yrotation Xrotation
					JOINT lshoulder
					{
						OFFSET 0.122921 0.045205 -0.019046
						CHANNELS 3 Zrotation Yrotation Xrotation
						JOINT lelbow
						{
							OFFSET 0.255332 -0.015649 -0.022946
							CHANNELS 3 Zrotation Yrotation Xrotation
							JOINT lwrist
							{
								OFFSET 0.265709 0.012698 -0.007375
								CHANNELS 3 Zrotation Yrotation Xrotation
								End Site
								{
									OFFSET 0.000000 0.000000 0.000000
								}
							}
						}
					}
				}
				JOINT rclavicle
				{
					OFFSET -0.082954 0.112472 -0.023707
					CHANNELS 3 Zrotation Yrotation Xrotation
					JOINT rshoulder
					{
						OFFSET -0.113228 0.046853 -0.008472
						CHANNELS 3 Zrotation Yrotation Xrotation
						JOINT relbow
						{
							OFFSET -0.260127 -0.014369 -0.031269
							CHANNELS 3 Zrotation Yrotation Xrotation
							JOINT rwrist
							{
								OFFSET -0.269108 0.006794 -0.006027
								CHANNELS 3 Zrotation Yrotation Xrotation
								End Site
								{
									OFFSET 0.000000 0.000000 0.000000
								}
							}
						}
					}
				}
			}
		}
	}
}
MOTION
Frames: 11
Frame Time: 0.033333
-0.085614 0.208004 0.971323 87.408801 -1.894523 88.124666 7.513374 1.400578 -21.014377 -8.078909 -3.680498 32.788177 0.005399 10.877205 -11.434663 0.000000 -0.000000 0.000000 -4.444353 2.168093 -24.616959 3.220215 5.059634 37.656864 1.810582 -9.662045 -13.142677 0.000000 -0.000000 0.000000 -1.359373 -0.463576 24.179016 -4.863926 -4.441203 -0.380814 -0.791738 1.758700 6.501533 -10.747559 3.095610 10.646291 9.827570 0.952481 -18.113670 10.134264 -17.241011 -16.383351 -4.701839 -14.827964 -6.589182 19.340817 -47.433924 -31.611385 13.330362 -10.398123 -33.619342 -15.739103 22.360763 -13.412024 3.334268 19.580146 -9.932131 -175.243081 59.871031 168.867697 -15.478918 18.471645 -56.099326 
-0.087077 0.208322 0.971211 87.686014 -1.935348 88.037798 7.420973 1.279847 -21.047201 -8.243886 -4.050152 32.856336 0.058693 11.163712 -11.464707 0.000000 -0.000000 0.000000 -4.464791 2.185100 -24.561705 3.277188 5.267568 37.666555 1.910343 -10.099416 -13.075509 0.000000 -0.000000 0.000000 -1.362258 -0.516692 24.435717 -5.209142 -4.586223 -0.808665 -0.964782 1.707398 7.099570 -11.113125 2.944520 11.588285 10.307598 2.235378 -18.330901 10.254444 -17.860760 -16.339622 -4.265936 -14.265133 -5.923742 16.982677 -48.841654 -29.279076 15.145838 -9.418877 -35.206291 -16.953505 21.566394 -13.802136 2.035261 18.333785 -10.621066 -176.032571 55.709858 167.031118 -17.331037 17.785307 -58.039277 
-0.088664 0.209173 0.970918 88.068710 -1.938616 88.074983 7.379480 1.061956 -21.236306 -8.266125 -4.100923 32.861035 0.092203 11.127463 -11.400972 0.000000 -0.000000 0.000000 -4.515665 2.087573 -24.615443 3.205363 5.294583 37.623699 2.014495 -10.235787 -12.967452 0.000000 -0.000000 0.000000 -1.159514 -0.714031 24.574943 -5.413635 -4.802878 -1.175914 -1.107987 1.610397 7.532532 -11.303655 3.112725 12.192940 10.501212 3.275014 -18.224343 10.779465 -18.033810 -16.408427 -4.968388 -14.428345 -5.073650 15.472190 -48.978379 -27.048871 15.942154 -9.007170 -36.274472 -18.264116 20.544315 -13.990052 1.285138 17.449242 -10.795543 -176.615480 53.171572 166.215912 -18.059448 17.730003 -59.535310 
-0.090365 0.209923 0.970698 88.435051 -1.951772 88.108314 7.282999 1.051597 -21.483471 -8.409702 -4.414877 32.981912 0.066999 11.121274 -11.347609 0.000000 -0.000000 0.000000 -4.558713 1.997289 -24.680001 3.162341 5.346820 37.581778 1.993894 -10.517304 -12.911658 0.000000 -0.000000 0.000000 -1.099100 -0.814244 24.615287 -5.387101 -4.966297 -1.330253 -1.031978 1.383867 7.920707 -11.312301 3.103664 12.653827 10.642343 4.250177 -18.333170 10.911955 -18.343435 -16.302771 -5.219420 -14.382552 -4.787678 14.076262 -49.357234 -25.348451 16.275421 -8.616972 -36.445160 -19.142451 19.641702 -14.190709 0.590106 16.485454 -10.940653 -177.404171 51.689657 165.292260 -18.473651 17.471534 -60.188669 
-0.091970 0.211121 0.970547 88.580948 -2.057706 88.145826 7.166432 1.070696 -21.648706 -8.597087 -4.422755 33.019667 0.059601 11.083907 -11.276934 0.000000 -0.000000 0.000000 -4.667455 1.885397 -24.844101 3.137114 5.553887 37.641564 2.084666 -10.708948 -12.792536 0.000000 -0.000000 0.000000 -1.034711 -0.881727 24.771281 -5.266387 -5.098065 -1.605109 -0.923987 1.205147 8.188026 -11.123850 3.135250 12.737734 10.873680 5.097749 -18.183359 10.898964 -18.397554 -16.170138 -5.259888 -14.505766 -4.583289 12.503153 -49.709156 -23.948765 16.576239 -8.358942 -36.813258 -19.631588 18.701873 -14.153539 0.015212 15.636041 -11.020441 -178.053042 50.683574 164.153042 -18.734948 17.231794 -60.807383 
-0.092690 0.212262 0.970351 88.663897 -2.165543 88.159609 7.023769 1.104114 -21.718011 -8.695453 -4.406784 33.023497 0.002870 11.096642 -11.298210 0.000000 -0.000000 0.000000 -4.779862 1.821968 -24.896831 3.046662 5.693663 37.661204 2.049657 -10.768316 -12.798754 0.000000 -0.000000 0.000000 -0.899814 -0.923533 24.729860 -5.066612 -5.197286 -1.659130 -0.832724 0.991011 8.312155 -10.910038 3.151668 12.806022 10.992604 5.581240 -18.018811 10.828548 -18.455044 -16.062026 -5.488342 -14.682584 -4.420812 11.891804 -49.728201 -23.500565 17.298987 -7.697498 -37.207214 -19.867197 18.114747 -13.970575 -0.218088 15.024418 -10.918479 -178.102856 49.960462 163.843373 -19.755572 16.306304 -61.528112 
-0.093326 0.214260 0.970151 88.765046 -2.251400 88.129984 6.837880 1.002657 -21.762554 -8.808950 -4.393160 33.046431 0.032542 11.206553 -11.341104 0.000000 -0.000000 0.000000 -4.986114 1.734257 -24.880978 3.025916 5.787640 37.629662 2.180160 -10.815361 -12.704293 0.000000 -0.000000 0.000000 -0.504170 -1.023369 24.781081 -4.707454 -5.358483 -2.029171 -0.591767 0.887124 8.788098 -10.690852 2.917433 13.073603 11.072554 6.089710 -18.016438 10.971779 -18.620665 -16.056450 -6.038300 -14.951034 -4.515849 11.148656 -49.459062 -23.075643 17.582789 -7.455465 -37.603191 -20.194947 17.360332 -14.129829 -0.365462 14.022250 -11.083777 -178.463778 49.211495 163.361838 -19.661462 16.553617 -61.275866 
-0.093503 0.216157 0.969802 88.640466 -2.451554 87.917884 6.593909 1.090376 -21.446595 -8.897775 -4.186637 32.937808 0.072411 11.100477 -11.516078 0.000000 -0.000000 0.000000 -5.266448 1.738477 -24.702246 2.988250 5.904685 37.675737 2.160052 -10.753814 -12.755452 0.000000 -0.000000 0.000000 -0.274357 -1.086485 24.727449 -4.277769 -5.388730 -1.885635 -0.334523 0.799568 8.910035 -10.039660 2.454842 13.541128 11.228412 6.061751 -17.825494 11.200698 -18.923137 -15.748053 -6.155875 -14.999218 -4.718607 10.800395 -49.182059 -23.658435 17.016242 -7.793758 -37.561630 -20.149171 16.726274 -14.283842 -0.411273 12.856039 -11.074602 -178.173534 48.938763 163.323043 -18.353060 17.451570 -60.758428 
-0.093628 0.218021 0.969717 88.567561 -2.646474 87.918313 6.321530 1.004815 -21.466041 -8.964335 -4.060491 32.983390 0.155007 11.134649 -11.508846 0.000000 -0.000000 0.000000 -5.523802 1.670307 -24.736102 2.988113 6.201085 37.708627 2.335251 -10.809915 -12.759882 0.000000 -0.000000 0.000000 -0.028079 -1.231218 25.080848 -3.648217 -5.571616 -2.434321 0.073775 0.542884 9.217653 -9.845160 2.033392 13.201834 11.636592 6.210039 -18.103955 11.322807 -18.187193 -14.961233 -6.284908 -15.479578 -5.270095 11.104668 -49.753795 -24.263323 17.293264 -7.267593 -38.246465 -20.314179 15.355636 -13.940542 -0.243959 12.182139 -11.215914 -178.024809 48.803591 163.800199 -18.213238 17.189119 -60.759045 
-0.093306 0.220070 0.969608 88.465513 -2.734242 87.913395 6.141590 0.995470 -21.475403 -9.037015 -3.919414 33.089023 0.158546 11.228008 -11.675422 0.000000 -0.000000 0.000000 -5.714006 1.595289 -24.731530 2.998403 6.378764 37.704385 2.359973 -10.737657 -12.757058 0.000000 -0.000000 0.000000 0.465444 -1.408235 24.742699 -2.986247 -5.791917 -2.458908 0.412717 0.242949 9.388382 -9.449537 1.819713 13.498831 11.660267 6.059282 -17.966193 11.552816 -18.291038 -14.690526 -6.477301 -15.454473 -5.907980 11.467267 -49.644032 -25.297203 16.718446 -7.598532 -38.206327 -20.513356 14.738134 -14.029546 0.081165 10.873588 -11.076447 -178.754477 49.932036 163.427943 -17.022703 17.920021 -59.898461 
-0.092510 0.221933 0.969538 88.241649 -2.852211 87.938501 5.914616 1.190078 -21.370875 -9.029881 -3.757424 32.983356 0.070323 11.103257 -11.566077 0.000000 -0.000000 0.000000 -5.911400 1.414021 -24.729091 3.012624 6.583591 37.602606 2.377284 -10.576163 -12.594004 0.000000 -0.000000 0.000000 0.889659 -1.551898 24.568873 -2.273141 -5.917602 -2.458323 0.874116 -0.125026 9.218454 -8.700432 1.434862 13.490615 11.489009 5.724593 -17.762184 11.707102 -18.226878 -14.333764 -6.344771 -15.678527 -6.642259 11.827203 -49.562847 -26.218053 15.857447 -8.483901 -37.400925 -20.631841 13.994955 -13.738899 0.203423 9.068808 -10.649328 -179.485973 51.728749 162.978792 -15.310346 19.262046 -59.486917 
